<svg width="30" height="42" viewBox="0 0 30 42" fill="none" xmlns="http://www.w3.org/2000/svg">
<rect x="0.5" y="15.9077" width="28" height="24.6796" stroke="url(#paint0_linear_269_3212)"/>
<mask id="path-2-inside-1_269_3212" fill="white">
<path d="M0 41.0872V15.4077C0 10.2718 1.4 0 15 0C28.6 0 29.5 10.2718 29.5 15.4077V41.0872H0Z"/>
</mask>
<path d="M0 41.0872H-1.5V42.5872H0V41.0872ZM29.5 41.0872V42.5872H31V41.0872H29.5ZM-1.5 15.4077V41.0872H1.5V15.4077H-1.5ZM0 42.5872H29.5V39.5872H0V42.5872ZM31 41.0872V15.4077H28V41.0872H31ZM31 15.4077C31 12.8006 30.7855 8.59009 28.6364 5.00642C26.4015 1.27977 22.2469 -1.5 15 -1.5V1.5C21.3531 1.5 24.4485 3.85613 26.0636 6.54934C27.7645 9.38554 28 12.8788 28 15.4077H31ZM15 -1.5C7.75649 -1.5 3.49633 1.27437 1.13581 4.97052C-1.1479 8.54641 -1.5 12.7508 -1.5 15.4077H1.5C1.5 12.9287 1.8479 9.42922 3.66419 6.58524C5.40367 3.86152 8.64351 1.5 15 1.5V-1.5Z" fill="url(#paint1_linear_269_3212)" mask="url(#path-2-inside-1_269_3212)"/>
<path d="M1 15.4077L29 15.4077" stroke="url(#paint2_linear_269_3212)" stroke-width="1.5"/>
<path d="M14.6229 26.6724L11.6229 32.3584L17.6229 32.3583L14.6229 26.6724Z" stroke="url(#paint3_linear_269_3212)" stroke-width="1.5"/>
<rect x="12" y="21.5708" width="5" height="5.13599" rx="2.5" stroke="url(#paint4_linear_269_3212)" stroke-width="1.5"/>
<defs>
<linearGradient id="paint0_linear_269_3212" x1="8.86448" y1="26.5984" x2="41.9955" y2="36.7825" gradientUnits="userSpaceOnUse">
<stop stop-color="#01A4FF"/>
<stop offset="0.838542" stop-color="#01FFC2"/>
</linearGradient>
<linearGradient id="paint1_linear_269_3212" x1="9.01732" y1="17.9051" x2="44.547" y2="24.8487" gradientUnits="userSpaceOnUse">
<stop stop-color="#01A4FF"/>
<stop offset="0.838542" stop-color="#01FFC2"/>
</linearGradient>
<linearGradient id="paint2_linear_269_3212" x1="9.55881" y1="15.8435" x2="10.1514" y2="20.3595" gradientUnits="userSpaceOnUse">
<stop stop-color="#01A4FF"/>
<stop offset="0.838542" stop-color="#01FFC2"/>
</linearGradient>
<linearGradient id="paint3_linear_269_3212" x1="15.7263" y1="30.4858" x2="9.32319" y2="34.052" gradientUnits="userSpaceOnUse">
<stop stop-color="#01A4FF"/>
<stop offset="0.838542" stop-color="#01FFC2"/>
</linearGradient>
<linearGradient id="paint4_linear_269_3212" x1="13.5284" y1="23.809" x2="19.3701" y2="25.357" gradientUnits="userSpaceOnUse">
<stop stop-color="#01A4FF"/>
<stop offset="0.838542" stop-color="#01FFC2"/>
</linearGradient>
</defs>
</svg>
