<svg width="39" height="36" viewBox="0 0 39 36" fill="none" xmlns="http://www.w3.org/2000/svg">
<path fill-rule="evenodd" clip-rule="evenodd" d="M18 8.7522C18 12.958 14.2732 16.5044 9.5 16.5044C4.72681 16.5044 1 12.958 1 8.7522C1 4.54639 4.72681 1 9.5 1C14.2732 1 18 4.54639 18 8.7522ZM19 8.7522C19 13.5859 14.7467 17.5044 9.5 17.5044C4.25329 17.5044 0 13.5859 0 8.7522C0 3.91849 4.25329 0 9.5 0C14.7467 0 19 3.91849 19 8.7522ZM38 8.7522C38 12.958 34.2732 16.5044 29.5 16.5044C24.7268 16.5044 21 12.958 21 8.7522C21 4.54639 24.7268 1 29.5 1C34.2732 1 38 4.54639 38 8.7522ZM39 8.7522C39 13.5859 34.7467 17.5044 29.5 17.5044C24.2533 17.5044 20 13.5859 20 8.7522C20 3.91849 24.2533 0 29.5 0C34.7467 0 39 3.91849 39 8.7522ZM29.5 34.9301C34.2732 34.9301 38 31.3837 38 27.1779C38 22.9722 34.2732 19.4258 29.5 19.4258C24.7268 19.4258 21 22.9722 21 27.1779C21 31.3837 24.7268 34.9301 29.5 34.9301ZM29.5 35.9301C34.7467 35.9301 39 32.0116 39 27.1779C39 22.3443 34.7467 18.4258 29.5 18.4258C24.2533 18.4258 20 22.3443 20 27.1779C20 32.0116 24.2533 35.9301 29.5 35.9301ZM1 34.9297L1 18.9878H18.475V34.9297H1ZM0 35.9297V34.9297V18.9878V17.9878H1H18.475H19.475V18.9878V34.9297V35.9297H18.475H1H0Z" fill="url(#paint0_linear_269_3224)"/>
<defs>
<linearGradient id="paint0_linear_269_3224" x1="11.9212" y1="15.6577" x2="56.7716" y2="28.9087" gradientUnits="userSpaceOnUse">
<stop stop-color="#01A4FF"/>
<stop offset="0.838542" stop-color="#01FFC2"/>
</linearGradient>
</defs>
</svg>
